<svg xmlns="http://www.w3.org/2000/svg" version="1.1" xmlns:xlink="http://www.w3.org/1999/xlink" xmlns:svgjs="http://svgjs.com/svgjs" viewBox="0 0 24 24" height="24" width="24"><title>single neutral rotate (From Streamline App : https://app.streamlineicons.com)</title><g transform="matrix(1,0,0,1,0,0)"><path d="M 12,0.75c1.45,0,2.625,1.175,2.625,2.625S13.45,6,12,6S9.375,4.825,9.375,3.375S10.55,0.75,12,0.75z " stroke="#000000" fill="none" stroke-width="1.5" stroke-linecap="round" stroke-linejoin="round"></path><path d="M 15.75,12.75V10.5c0-2.071-1.679-3.75-3.75-3.75S8.25,8.429,8.25,10.5v2.25h1.5l0.75,6h3l0.75-6H15.75z " stroke="#000000" fill="none" stroke-width="1.5" stroke-linecap="round" stroke-linejoin="round"></path><path d="M 3.75,23.25l3.351-1.949 L6,17.25 " stroke="#000000" fill="none" stroke-width="1.5" stroke-linecap="round" stroke-linejoin="round"></path><path d="M 12,21.75c6.213,0,11.25-2.015,11.25-4.5c0-1.471-1.772-2.773-4.5-3.594 " stroke="#000000" fill="none" stroke-width="1.5" stroke-linecap="round" stroke-linejoin="round"></path><path d="M 5.25,13.656c-2.728,0.821-4.5,2.123-4.5,3.594 c0,1.781,2.6,3.317,6.35,4.046" stroke="#000000" fill="none" stroke-width="1.5" stroke-linecap="round" stroke-linejoin="round"></path></g></svg>